<?xml version="1.0" encoding="UTF-8"?>
<!DOCTYPE svg PUBLIC "-//W3C//DTD SVG 1.1//EN" "http://www.w3.org/Graphics/SVG/1.1/DTD/svg11.dtd">
<!-- Creator: CorelDRAW X8 -->
<svg xmlns="http://www.w3.org/2000/svg" xml:space="preserve" width="2000px" height="2000px" version="1.1" shape-rendering="geometricPrecision" text-rendering="geometricPrecision" image-rendering="optimizeQuality" fill-rule="evenodd" clip-rule="evenodd"
viewBox="0 0 2000 2000"
 xmlns:xlink="http://www.w3.org/1999/xlink">
 <g id="Capa_x0020_1">
  <metadata id="CorelCorpID_0Corel-Layer"/>
  <path fill="#DB381A" d="M52 1022l14 10c9,7 10,11 10,-1 0,-6 1,-7 1,-11 0,-4 0,-8 0,-12l2 -22c1,-16 2,-30 2,-46 0,-5 1,-6 1,-11 1,-23 3,-45 4,-67 1,-10 0,-25 2,-36 1,-7 1,-16 1,-23 0,-32 1,-19 51,-19 9,0 17,-1 25,0 6,0 6,0 11,1 12,0 23,-1 34,0 4,1 9,1 12,1 6,0 7,1 11,1 6,0 5,-2 11,-1l107 4c5,0 8,0 11,0 4,0 5,-1 11,0l57 2c5,0 7,1 12,1 10,-1 11,-1 22,0l66 2c7,1 16,0 23,1l2 54c0,20 1,36 1,56 0,18 2,35 2,54 0,35 -1,27 13,29 17,3 11,-3 11,-29 0,-1 -1,-3 -1,-4 0,-14 1,-35 0,-44l-2 -37c0,-9 0,-17 0,-25l-1 -38c-1,-4 0,-6 0,-11l-2 -24c-5,-3 -37,-3 -47,-3l-24 -1c-8,0 -18,0 -26,0 -6,-1 -65,-4 -71,-3 -6,1 -17,-1 -24,-1 -8,0 -16,0 -25,0l-73 -3c-6,-1 -6,1 -11,0 -15,0 -19,-1 -36,-1 -8,0 -17,0 -24,-1 -8,-1 -17,0 -25,-1l-99 -2c-25,0 -24,-10 -26,34 0,9 -2,24 -2,37l-11 190zm669 -60l0 -51c0,-12 13,-5 37,-2 7,1 23,2 32,5l5 40c1,5 3,10 -1,11 -7,3 -48,1 -60,1 -4,0 -13,2 -13,-4zm1 -94c-2,-9 -1,-22 -1,-31 0,-14 11,-10 23,-10 12,0 23,0 34,0l3 14c4,26 8,18 -42,25 -6,1 -10,2 -17,2zm-52 -90c-3,15 -1,27 -3,42l-7 122c-1,5 -1,11 -1,17l-3 42c-1,5 0,11 5,11l180 0c17,0 12,-16 11,-30 -1,-6 -1,-10 -2,-16 -1,-11 -3,-23 -4,-33 0,-12 -1,-24 -6,-31 -5,-4 -17,-12 -25,-12 5,-6 21,-2 21,-12 0,-5 -1,-10 -1,-14l-10 -66c-2,-8 0,-21 -10,-21 -17,0 -138,-2 -145,1zm375 382l-50 0c-4,0 -5,-5 -5,-9l0 -34c0,-5 2,-6 2,-9 3,0 4,-1 5,-1l8 1c4,0 5,-1 7,-1l14 1c5,0 6,-1 9,-1l28 3c22,5 27,32 9,43 -7,4 -16,7 -27,7zm-82 -63l0 143c0,7 27,7 30,-1 1,-4 0,-44 0,-50 0,-14 2,-10 22,-10 27,0 18,-5 43,26 6,8 25,35 29,38 4,3 7,2 15,2 6,0 12,0 18,0l-19 -26c-4,-4 -32,-39 -33,-42 20,-2 43,-18 43,-40 0,-15 -3,-27 -15,-37 -8,-7 -21,-11 -33,-11l-92 0c-4,0 -8,3 -8,8zm-24 -198c-1,0 -2,-2 -2,-3l0 -67c0,-7 18,-4 26,-4 11,0 22,0 32,0 2,2 3,2 3,5l0 42c0,10 -14,11 -26,16 -5,2 -29,11 -33,11zm-47 -121c-1,7 -5,69 -6,85l-3 43c0,5 1,10 0,15 0,3 -1,8 -1,13 -1,25 -4,47 -4,74 0,5 9,4 14,4 23,-2 17,-1 37,0 17,0 14,-2 14,-31 0,-14 -9,-31 16,-43 20,-9 18,0 29,30l12 32c5,14 5,12 32,12 5,0 7,-1 10,-1 4,0 27,3 27,-2 0,-8 -45,-87 -45,-93 0,-5 2,-6 4,-7 0,0 2,-1 2,-1l7 -3c21,-8 17,-13 17,-27 0,-10 0,-15 -1,-23l-8 -62c0,-8 1,-16 -8,-16 -17,0 -138,-2 -145,1zm-134 356l0 64c0,7 -1,12 -1,19 0,6 0,12 0,19 0,10 4,9 22,9 11,0 8,-16 8,-31 0,-13 0,-26 0,-39 9,-6 3,0 21,-3 8,-1 41,0 51,0 17,0 18,1 18,-13 0,-9 -7,-8 -16,-8l-66 0c-12,-1 -8,-7 -8,-30 0,-3 -1,-5 0,-8 2,-3 4,-3 8,-3l60 0c25,0 28,5 28,-17 0,-5 -7,-6 -12,-6l-103 0c-12,0 -11,6 -11,18 0,6 1,8 1,14 0,5 0,10 0,15zm-175 108c-4,0 -4,1 -9,1l-486 0c-5,0 -3,-9 -3,-15 0,-8 2,-12 1,-19 -1,-17 1,-23 1,-37 0,-7 0,-14 0,-20 0,-8 1,-13 1,-19 0,-15 1,-26 1,-39 -3,-2 -8,-5 -12,-7 -3,-2 -8,-6 -12,-7l-1 21c0,30 -2,57 -2,89l-1 32c-1,4 0,6 0,11l-1 22c0,10 0,11 18,11l27 0c50,-4 104,-1 154,-1l334 0c17,0 17,5 13,-35l-2 -47c-1,-4 -1,-8 -1,-12 0,-6 0,-8 -1,-12 0,-10 -1,-16 -1,-25l-1 -10c0,-6 0,-8 -1,-12 0,-4 1,-8 0,-12 0,-5 -1,-7 -1,-12 0,-9 0,-16 -1,-25 0,-6 -1,-7 -1,-12l-1 -25c-1,-11 2,-9 -24,-9 0,3 0,3 0,5l1 21c1,10 0,19 1,28l2 29c1,21 3,42 3,57l5 85zm-363 -104c-9,-2 -88,-38 -96,-39 0,6 0,9 -1,14l-2 56c0,2 1,4 1,6l-2 37c5,2 12,1 20,0 6,0 14,1 22,1 8,0 14,-1 23,-1l119 -1c8,0 14,-1 23,-1 8,0 16,0 24,0 9,0 14,-1 23,-1 16,0 63,1 72,-1 7,-1 15,0 23,0 5,0 8,-1 12,-1 4,-1 6,1 10,1 15,0 27,-2 41,-1 17,0 10,-5 9,-29 0,-23 -2,-38 -4,-59 0,-4 0,-7 0,-10l-3 -39c-1,-13 -1,-37 -2,-51 -1,-6 2,-6 -12,-9l-33 -9c-23,-8 -16,-7 -37,21l-56 78c-5,6 -6,2 -21,-12 -2,-1 -3,-1 -5,-3l-63 -58c-6,-6 -11,-10 -17,-16 -2,-2 -2,-2 -4,-4l-30 -27 -17 80c-1,7 -3,14 -4,19l-13 59zm-110 -90l38 21c41,22 41,26 44,13l8 -30c8,-29 22,-73 29,-102 2,-7 4,-14 5,-20 9,4 26,25 37,35 4,3 10,10 14,13l77 76c5,5 13,15 19,17l11 -12c3,-5 6,-8 10,-13 4,-4 7,-8 11,-12 3,-5 6,-8 10,-13l35 -43c2,-2 5,-5 5,-7 9,0 38,10 49,13 20,6 22,12 20,-21 0,-5 -1,-5 -1,-10 0,-16 1,-15 -1,-30l-3 -91 -24 -2c-4,0 -8,0 -12,-1l-12 1c-19,0 -55,-4 -75,-3 -8,0 -18,0 -26,0l-50 -2c-8,0 -18,0 -26,0 -6,-1 -18,-1 -24,-2l-102 -2c-5,0 -8,-1 -12,-1l-24 -1c-4,1 -6,0 -12,0 -6,0 -3,11 -5,25l-9 145c0,11 -4,46 -4,59zm1652 -37c10,2 22,0 33,0 8,0 12,0 17,1 16,1 13,-4 13,-17 0,-10 1,-21 0,-30 -2,-14 0,-37 -1,-43l-2 -29c0,-4 0,-6 0,-8 0,-3 0,-3 0,-6 8,8 14,23 20,33l15 25c2,3 3,6 5,9l15 25c2,4 3,6 5,9l17 29c2,2 3,3 5,3l57 0c3,0 4,-3 5,-6l0 -5c-1,-4 -1,-7 -2,-8 0,-4 0,-10 -1,-15 -2,-15 -5,-69 -7,-87l-6 -105c-1,-6 -2,-9 -7,-9 -12,0 -41,-2 -51,1 -3,7 1,19 1,31l8 84c0,4 1,14 1,18 -4,-6 -15,-27 -20,-34l-29 -53c-2,-3 -3,-5 -5,-8l-14 -26c-4,-7 -6,-13 -16,-13 -56,0 -49,-5 -49,24 1,28 -2,61 -2,91l-2 29c-1,5 -1,9 -1,15 1,6 0,9 -1,15 0,4 1,10 0,15 0,5 -1,8 -1,15 1,11 -2,19 0,30zm-521 -60c0,10 1,11 -16,11 -8,0 -12,1 -20,1 -59,-1 -47,10 -48,-30l3 -79c0,-8 1,-12 1,-19 0,-8 0,-14 7,-14l64 0c8,0 5,22 5,30 0,6 1,9 1,16 0,6 0,12 0,18 0,6 1,9 1,16 0,21 2,33 2,50zm-143 42c0,23 0,19 49,19l144 0c14,-2 10,-6 9,-18 0,-16 1,-37 -1,-57 0,-9 -1,-19 -1,-27l-3 -42c0,-7 -1,-8 -1,-14 0,-11 -1,-18 -2,-27 0,-5 -2,-45 -4,-47 0,-1 -3,-3 -5,-3l-167 0c-9,0 -6,9 -7,13l-2 37c0,9 -1,18 -2,27l-7 139zm242 19c13,0 50,1 59,-1 3,-11 -1,-16 1,-34 1,-4 -1,-6 -1,-11l0 -27c0,-6 1,-6 1,-11 10,-3 23,-2 33,-2 4,0 11,17 13,21 4,8 8,15 11,23 4,7 8,14 12,22 3,7 7,20 15,20l56 0c10,0 -2,-18 -5,-26l-7 -13c-6,-12 -12,-23 -17,-35l-17 -35c-18,-34 -21,-33 -11,-49 13,-21 26,-47 38,-67 8,-14 2,-10 -38,-10 -21,0 -25,14 -37,30l-17 21c-3,5 -6,8 -9,12l-14 18c-2,3 -2,5 -6,6l0 -75c0,-9 -5,-12 -14,-12 -38,0 -41,-4 -41,11l-5 108c0,3 0,10 -1,14l-4 61c0,6 -1,9 -1,16 1,9 -5,25 6,25zm227 -232c0,2 -1,2 -1,5l0 223c0,3 3,4 6,4l166 0c6,0 3,-10 2,-15 -9,-47 5,-29 -72,-35 -4,-1 -7,0 -10,0 -1,0 -26,1 -26,-6 0,-11 -1,-30 1,-39 10,-5 59,-1 73,-1 18,0 14,-1 10,-32 -3,-22 6,-21 -34,-21 -39,0 -48,5 -50,-15 -1,-28 -3,-19 42,-19 6,0 7,0 11,1 7,0 30,1 34,0l-4 -44c-1,-6 -1,-9 -8,-9 -26,0 -83,-1 -108,1 -5,0 -11,0 -17,0 -6,0 -9,0 -15,2zm-40 427l-2 0c-1,-7 -17,-38 -21,-49l-22 -49c-10,-21 -8,-20 -40,-20 -6,0 -10,2 -10,8l0 136c0,15 6,12 23,12 10,0 9,-5 9,-13 0,-29 -2,-55 -2,-83 0,-6 1,-7 1,-13l48 103c4,7 8,5 15,5 16,-1 13,4 23,-20 3,-5 4,-10 7,-15l10 -22c1,-3 2,-5 3,-8l17 -37c2,-3 3,-5 4,-7 0,19 0,39 0,59 0,10 0,18 -1,28 0,3 -4,23 5,23 18,0 17,2 26,-3 0,-8 2,-13 1,-21 -1,-35 -1,-76 -1,-111 0,-21 5,-22 -25,-22 -16,0 -23,19 -31,37 -2,6 -4,11 -7,17 -2,3 -2,5 -4,8l-26 57zm190 -119c-2,3 -4,3 -4,10l0 132c0,9 2,15 11,15l117 0c17,0 11,-19 7,-22 -9,-6 -99,0 -104,-3 -3,-2 -1,-14 -1,-23 0,-25 -9,-21 49,-21 15,0 29,2 42,-1 7,-27 -9,-23 -28,-23 -13,0 -26,0 -40,0 -3,0 -17,0 -19,-1 -6,-1 -4,-8 -3,-14 0,-20 -4,-28 11,-28l72 0c17,0 22,3 22,-14 0,-11 -16,-7 -26,-7l-106 0zm-429 90c-11,0 -36,1 -46,-1 0,-8 16,-38 20,-47 1,-3 2,-5 3,-7l4 -7c2,7 25,55 25,58 0,3 -3,4 -6,4zm-102 64c4,2 7,3 13,3 19,-2 16,2 27,-25 2,-4 3,-7 5,-12 7,-17 7,-10 38,-10 11,0 20,-2 27,-1 9,1 11,7 14,14 2,8 6,13 8,20 7,15 8,14 28,14 11,0 4,-11 -2,-24l-43 -99c-3,-7 -5,-13 -8,-20 -7,-16 -11,-13 -32,-13 -8,0 -10,9 -12,15l-41 88c-1,3 -3,6 -5,10 -4,9 -15,32 -17,40z"/>
 </g>
</svg>
